<svg xmlns="http://www.w3.org/2000/svg" width="512" height="512" fill="none" viewBox="0 0 512 512" id="bento-menu">
  <path stroke="#000" stroke-width="60.235" d="M286.117 256C286.117 272.634 272.633 286.118 256 286.118C239.366 286.118 225.882 272.634 225.882 256C225.882 239.367 239.366 225.882 256 225.882C272.633 225.882 286.117 239.367 286.117 256ZM120.475 256C120.475 272.634 106.991 286.118 90.3574 286.118C73.7238 286.118 60.2397 272.634 60.2397 256C60.2397 239.367 73.7238 225.882 90.3574 225.882C106.991 225.882 120.475 239.367 120.475 256ZM451.765 256C451.765 272.634 438.28 286.118 421.647 286.118C405.013 286.118 391.529 272.634 391.529 256C391.529 239.367 405.013 225.882 421.647 225.882C438.28 225.882 451.765 239.367 451.765 256ZM286.117 90.353C286.117 106.986 272.633 120.471 256 120.471C239.366 120.471 225.882 106.986 225.882 90.353C225.882 73.7194 239.366 60.2353 256 60.2353C272.633 60.2353 286.117 73.7195 286.117 90.353ZM120.475 90.353C120.475 106.986 106.991 120.471 90.3574 120.471C73.7238 120.471 60.2397 106.986 60.2397 90.353C60.2397 73.7195 73.7238 60.2353 90.3574 60.2353C106.991 60.2353 120.475 73.7195 120.475 90.353ZM451.765 90.353C451.765 106.986 438.28 120.471 421.647 120.471C405.013 120.471 391.529 106.986 391.529 90.353C391.529 73.7195 405.013 60.2353 421.647 60.2353C438.28 60.2353 451.765 73.7195 451.765 90.353ZM286.117 421.647C286.117 438.281 272.633 451.765 256 451.765C239.366 451.765 225.882 438.281 225.882 421.647C225.882 405.014 239.366 391.529 256 391.529C272.633 391.529 286.117 405.014 286.117 421.647ZM120.475 421.647C120.475 438.281 106.991 451.765 90.3574 451.765C73.7238 451.765 60.2397 438.281 60.2397 421.647C60.2397 405.014 73.7238 391.529 90.3574 391.529C106.991 391.529 120.475 405.014 120.475 421.647ZM451.765 421.647C451.765 438.281 438.28 451.765 421.647 451.765C405.013 451.765 391.529 438.281 391.529 421.647C391.529 405.014 405.013 391.529 421.647 391.529C438.28 391.529 451.765 405.014 451.765 421.647Z"></path>
</svg>
